<svg width="50" height="50" viewBox="0 0 50 50" fill="none" xmlns="http://www.w3.org/2000/svg">
<rect y="0.00012207" width="50" height="50" rx="15" fill="#EAECFE"/>
<path d="M34.1164 16.6893C37.0626 21.0478 38.5176 25.9641 37.9737 31.6239C37.9714 31.6478 37.959 31.6698 37.9394 31.6843C35.7083 33.3327 33.5467 34.333 31.4154 34.9965C31.3988 35.0015 31.3811 35.0013 31.3646 34.9957C31.3482 34.9901 31.3339 34.9795 31.3238 34.9653C30.8314 34.276 30.384 33.5492 29.992 32.786C29.9695 32.7411 29.9901 32.6869 30.0364 32.6692C30.7469 32.3999 31.4226 32.077 32.0725 31.6948C32.1237 31.6646 32.1269 31.5908 32.0797 31.5553C31.9417 31.4523 31.8051 31.344 31.6743 31.2357C31.6499 31.2157 31.6169 31.2118 31.5892 31.2252C27.37 33.1857 22.748 33.1857 18.4789 31.2252C18.4512 31.2128 18.4183 31.217 18.3945 31.2367C18.264 31.345 18.1271 31.4523 17.9904 31.5553C17.9432 31.5908 17.9471 31.6646 17.9986 31.6948C18.6485 32.0698 19.3241 32.3999 20.0337 32.6705C20.0797 32.6883 20.1015 32.7411 20.0787 32.786C19.6952 33.5502 19.2478 34.2769 18.7463 34.9663C18.7245 34.9942 18.6886 35.007 18.6547 34.9965C16.5335 34.333 14.3719 33.3327 12.1408 31.6843C12.1222 31.6698 12.1088 31.6469 12.1069 31.6229C11.6523 26.7273 12.5787 21.7703 15.9606 16.6883C15.9687 16.6748 15.9811 16.6643 15.9954 16.6581C17.6595 15.8897 19.4422 15.3244 21.3054 15.0015C21.3393 14.9963 21.3733 15.012 21.3909 15.0422C21.6211 15.4523 21.8842 15.9783 22.0623 16.4081C24.0263 16.1062 26.021 16.1062 28.0261 16.4081C28.2041 15.9875 28.4581 15.4523 28.6874 15.0422C28.6955 15.0272 28.7082 15.0152 28.7235 15.0079C28.7389 15.0006 28.7561 14.9984 28.7728 15.0015C30.637 15.3253 32.4198 15.8907 34.0825 16.6581C34.0972 16.6643 34.1092 16.6748 34.1164 16.6893ZM23.0608 25.9976C23.0813 24.5503 22.0326 23.3527 20.7162 23.3527C19.4105 23.3527 18.372 24.5398 18.372 25.9976C18.372 27.455 19.4311 28.6421 20.7162 28.6421C22.0222 28.6421 23.0608 27.455 23.0608 25.9976ZM31.7288 25.9976C31.7493 24.5503 30.7006 23.3527 29.3846 23.3527C28.0786 23.3527 27.04 24.5398 27.04 25.9976C27.04 27.455 28.0991 28.6421 29.3846 28.6421C30.7006 28.6421 31.7288 27.455 31.7288 25.9976Z" fill="#5865F2"/>
</svg>
