<svg width="50" height="50" viewBox="0 0 50 50" fill="none" xmlns="http://www.w3.org/2000/svg">
<rect y="-0.00012207" width="50" height="50.001" rx="15" fill="#F8F8F8"/>
<path d="M26.6748 25.1203L29.3895 28.0783L33.0398 30.302L33.6763 25.1385L33.0398 20.0902L29.3195 22.044L26.6748 25.1203Z" fill="#00832D"/>
<path d="M10.9219 29.8226V34.2217C10.9219 35.2274 11.7764 36.042 12.8314 36.042H17.446L18.4007 32.7169L17.446 29.8226L14.2794 28.9125L10.9219 29.8226Z" fill="#0066DA"/>
<path d="M17.446 14.1984L10.9219 20.4177L14.2794 21.3278L17.446 20.4177L18.3848 17.5629L17.446 14.1984Z" fill="#E94235"/>
<path d="M17.446 20.4178H10.9219V29.8227H17.446V20.4178Z" fill="#2684FC"/>
<path d="M37.2096 16.8319L33.0405 20.0902V30.3021L37.2287 33.5755C37.8557 34.0428 38.7722 33.6165 38.7722 32.8565V17.5357C38.7722 16.7667 37.835 16.345 37.2096 16.8319ZM26.6755 25.1203V29.8227H17.4463V36.042H31.131C32.186 36.042 33.0405 35.2275 33.0405 34.2218V30.3021L26.6755 25.1203Z" fill="#00AC47"/>
<path d="M31.131 14.1984H17.4463V20.4177H26.6755V25.1201L33.0405 20.0931V16.0187C33.0405 15.0129 32.186 14.1984 31.131 14.1984Z" fill="#FFBA00"/>
</svg>
