<svg width="50" height="50" viewBox="0 0 50 50" fill="none" xmlns="http://www.w3.org/2000/svg">
<rect y="-0.00012207" width="50" height="50" rx="15" fill="#FAF5FC"/>
<path d="M20.5753 25.1196C20.5753 22.6065 22.6133 20.5686 25.1279 20.5686C27.6426 20.5686 29.6817 22.6065 29.6817 25.1196C29.6817 27.6328 27.6426 29.6707 25.1279 29.6707C22.6133 29.6707 20.5753 27.6328 20.5753 25.1196ZM18.1136 25.1196C18.1136 28.9913 21.2539 32.1298 25.1279 32.1298C29.002 32.1298 32.1423 28.9913 32.1423 25.1196C32.1423 21.2479 29.002 18.1095 25.1279 18.1095C21.2539 18.1095 18.1136 21.2479 18.1136 25.1196ZM30.7807 17.8315C30.7806 18.1556 30.8766 18.4723 31.0566 18.7418C31.2367 19.0113 31.4926 19.2214 31.7921 19.3455C32.0915 19.4696 32.4211 19.5022 32.7391 19.4391C33.0571 19.376 33.3493 19.2201 33.5786 18.9911C33.8079 18.7621 33.9642 18.4702 34.0276 18.1525C34.0909 17.8347 34.0586 17.5053 33.9347 17.2059C33.8107 16.9065 33.6007 16.6505 33.3312 16.4704C33.0617 16.2903 32.7448 16.1941 32.4206 16.194H32.42C31.9854 16.1942 31.5687 16.3667 31.2613 16.6738C30.954 16.9808 30.7811 17.3972 30.7807 17.8315ZM19.6092 36.232C18.2774 36.1714 17.5535 35.9497 17.0725 35.7624C16.4347 35.5142 15.9797 35.2187 15.5012 34.7412C15.0228 34.2637 14.7267 33.8094 14.4795 33.172C14.2919 32.6915 14.0701 31.9678 14.0095 30.6368C13.9433 29.1978 13.9301 28.7655 13.9301 25.1197C13.9301 21.474 13.9444 21.0429 14.0095 19.6027C14.0702 18.2717 14.2937 17.5494 14.4795 17.0675C14.7277 16.4301 15.0235 15.9753 15.5012 15.4972C15.979 15.019 16.4336 14.723 17.0725 14.476C17.5533 14.2886 18.2774 14.0669 19.6092 14.0064C21.0491 13.9402 21.4817 13.927 25.1279 13.927C28.7742 13.927 29.2072 13.9413 30.6483 14.0064C31.9801 14.067 32.7028 14.2903 33.185 14.476C33.8228 14.723 34.2779 15.0197 34.7563 15.4972C35.2347 15.9747 35.5298 16.4301 35.7781 17.0675C35.9656 17.548 36.1874 18.2717 36.248 19.6027C36.3142 21.0429 36.3274 21.474 36.3274 25.1197C36.3274 28.7655 36.3142 29.1966 36.248 30.6368C36.1873 31.9678 35.9644 32.6912 35.7781 33.172C35.5298 33.8094 35.2341 34.2642 34.7563 34.7412C34.2785 35.2183 33.8228 35.5142 33.185 35.7624C32.7042 35.9498 31.9801 36.1715 30.6483 36.232C29.2084 36.2982 28.7759 36.3114 25.1279 36.3114C21.48 36.3114 21.0487 36.2982 19.6092 36.232ZM19.4961 11.5503C18.0419 11.6165 17.0482 11.847 16.1804 12.1844C15.2817 12.5329 14.5209 13.0005 13.7606 13.7591C13.0003 14.5177 12.5337 15.2793 12.185 16.1775C11.8473 17.0453 11.6167 18.0379 11.5505 19.4912C11.4832 20.9468 11.4678 21.4122 11.4678 25.1196C11.4678 28.8271 11.4832 29.2924 11.5505 30.7481C11.6167 32.2015 11.8473 33.194 12.185 34.0618C12.5337 34.9594 13.0004 35.7219 13.7606 36.4802C14.5208 37.2384 15.2817 37.7053 16.1804 38.0548C17.0499 38.3923 18.0419 38.6228 19.4961 38.6889C20.9534 38.7551 21.4183 38.7716 25.1279 38.7716C28.8376 38.7716 29.3033 38.7562 30.7598 38.6889C32.2141 38.6228 33.2071 38.3923 34.0755 38.0548C34.9737 37.7053 35.735 37.2388 36.4953 36.4802C37.2556 35.7215 37.7212 34.9594 38.0709 34.0618C38.4086 33.194 38.6403 32.2014 38.7054 30.7481C38.7716 29.2913 38.787 28.8271 38.787 25.1196C38.787 21.4122 38.7716 20.9468 38.7054 19.4912C38.6392 18.0377 38.4086 17.0448 38.0709 16.1775C37.7212 15.2798 37.2544 14.5189 36.4953 13.7591C35.7362 12.9993 34.9737 12.5329 34.0766 12.1844C33.2071 11.847 32.214 11.6154 30.7609 11.5503C29.3044 11.4841 28.8387 11.4677 25.129 11.4677C21.4194 11.4677 20.9534 11.4831 19.4961 11.5503Z" fill="url(#paint0_radial_1638_2685)"/>
<path d="M20.5753 25.1196C20.5753 22.6065 22.6133 20.5686 25.1279 20.5686C27.6426 20.5686 29.6817 22.6065 29.6817 25.1196C29.6817 27.6328 27.6426 29.6707 25.1279 29.6707C22.6133 29.6707 20.5753 27.6328 20.5753 25.1196ZM18.1136 25.1196C18.1136 28.9913 21.2539 32.1298 25.1279 32.1298C29.002 32.1298 32.1423 28.9913 32.1423 25.1196C32.1423 21.2479 29.002 18.1095 25.1279 18.1095C21.2539 18.1095 18.1136 21.2479 18.1136 25.1196ZM30.7807 17.8315C30.7806 18.1556 30.8766 18.4723 31.0566 18.7418C31.2367 19.0113 31.4926 19.2214 31.7921 19.3455C32.0915 19.4696 32.4211 19.5022 32.7391 19.4391C33.0571 19.376 33.3493 19.2201 33.5786 18.9911C33.8079 18.7621 33.9642 18.4702 34.0276 18.1525C34.0909 17.8347 34.0586 17.5053 33.9347 17.2059C33.8107 16.9065 33.6007 16.6505 33.3312 16.4704C33.0617 16.2903 32.7448 16.1941 32.4206 16.194H32.42C31.9854 16.1942 31.5687 16.3667 31.2613 16.6738C30.954 16.9808 30.7811 17.3972 30.7807 17.8315ZM19.6092 36.232C18.2774 36.1714 17.5535 35.9497 17.0725 35.7624C16.4347 35.5142 15.9797 35.2187 15.5012 34.7412C15.0228 34.2637 14.7267 33.8094 14.4795 33.172C14.2919 32.6915 14.0701 31.9678 14.0095 30.6368C13.9433 29.1978 13.9301 28.7655 13.9301 25.1197C13.9301 21.474 13.9444 21.0429 14.0095 19.6027C14.0702 18.2717 14.2937 17.5494 14.4795 17.0675C14.7277 16.4301 15.0235 15.9753 15.5012 15.4972C15.979 15.019 16.4336 14.723 17.0725 14.476C17.5533 14.2886 18.2774 14.0669 19.6092 14.0064C21.0491 13.9402 21.4817 13.927 25.1279 13.927C28.7742 13.927 29.2072 13.9413 30.6483 14.0064C31.9801 14.067 32.7028 14.2903 33.185 14.476C33.8228 14.723 34.2779 15.0197 34.7563 15.4972C35.2347 15.9747 35.5298 16.4301 35.7781 17.0675C35.9656 17.548 36.1874 18.2717 36.248 19.6027C36.3142 21.0429 36.3274 21.474 36.3274 25.1197C36.3274 28.7655 36.3142 29.1966 36.248 30.6368C36.1873 31.9678 35.9644 32.6912 35.7781 33.172C35.5298 33.8094 35.2341 34.2642 34.7563 34.7412C34.2785 35.2183 33.8228 35.5142 33.185 35.7624C32.7042 35.9498 31.9801 36.1715 30.6483 36.232C29.2084 36.2982 28.7759 36.3114 25.1279 36.3114C21.48 36.3114 21.0487 36.2982 19.6092 36.232ZM19.4961 11.5503C18.0419 11.6165 17.0482 11.847 16.1804 12.1844C15.2817 12.5329 14.5209 13.0005 13.7606 13.7591C13.0003 14.5177 12.5337 15.2793 12.185 16.1775C11.8473 17.0453 11.6167 18.0379 11.5505 19.4912C11.4832 20.9468 11.4678 21.4122 11.4678 25.1196C11.4678 28.8271 11.4832 29.2924 11.5505 30.7481C11.6167 32.2015 11.8473 33.194 12.185 34.0618C12.5337 34.9594 13.0004 35.7219 13.7606 36.4802C14.5208 37.2384 15.2817 37.7053 16.1804 38.0548C17.0499 38.3923 18.0419 38.6228 19.4961 38.6889C20.9534 38.7551 21.4183 38.7716 25.1279 38.7716C28.8376 38.7716 29.3033 38.7562 30.7598 38.6889C32.2141 38.6228 33.2071 38.3923 34.0755 38.0548C34.9737 37.7053 35.735 37.2388 36.4953 36.4802C37.2556 35.7215 37.7212 34.9594 38.0709 34.0618C38.4086 33.194 38.6403 32.2014 38.7054 30.7481C38.7716 29.2913 38.787 28.8271 38.787 25.1196C38.787 21.4122 38.7716 20.9468 38.7054 19.4912C38.6392 18.0377 38.4086 17.0448 38.0709 16.1775C37.7212 15.2798 37.2544 14.5189 36.4953 13.7591C35.7362 12.9993 34.9737 12.5329 34.0766 12.1844C33.2071 11.847 32.214 11.6154 30.7609 11.5503C29.3044 11.4841 28.8387 11.4677 25.129 11.4677C21.4194 11.4677 20.9534 11.4831 19.4961 11.5503Z" fill="url(#paint1_radial_1638_2685)"/>
<defs>
<radialGradient id="paint0_radial_1638_2685" cx="0" cy="0" r="1" gradientUnits="userSpaceOnUse" gradientTransform="translate(15.0974 38.9006) scale(35.6644 35.643)">
<stop offset="0.09" stop-color="#FA8F21"/>
<stop offset="0.78" stop-color="#D82D7E"/>
</radialGradient>
<radialGradient id="paint1_radial_1638_2685" cx="0" cy="0" r="1" gradientUnits="userSpaceOnUse" gradientTransform="translate(28.0364 40.1238) scale(28.1085 28.0916)">
<stop offset="0.64" stop-color="#8C3AAA" stop-opacity="0"/>
<stop offset="1" stop-color="#8C3AAA"/>
</radialGradient>
</defs>
</svg>
