<svg width="50" height="50" viewBox="0 0 50 50" fill="none" xmlns="http://www.w3.org/2000/svg">
<rect y="0.000244141" width="50" height="50" rx="15" fill="#EEFAFF"/>
<path d="M11.4678 13.4248C11.4678 12.3446 12.3721 11.4678 13.4869 11.4678H36.769C37.8842 11.4678 38.7881 12.3446 38.7881 13.4248V36.8314C38.7881 37.9119 37.8842 38.7881 36.769 38.7881H13.4869C12.3722 38.7881 11.4678 37.9121 11.4678 36.8317V13.4245V13.4248Z" fill="#006699"/>
<path d="M19.7696 34.3314V22.0317H15.6814V34.3314H19.7701H19.7696ZM17.7264 20.3527C19.1517 20.3527 20.0391 19.4082 20.0391 18.2279C20.0124 17.0207 19.1517 16.1025 17.7535 16.1025C16.3543 16.1025 15.4404 17.0207 15.4404 18.2278C15.4404 19.4081 16.3275 20.3526 17.6996 20.3526H17.7261L17.7264 20.3527ZM22.0325 34.3314H26.1204V27.4634C26.1204 27.0963 26.1471 26.7282 26.2551 26.466C26.5505 25.7313 27.2232 24.9707 28.3528 24.9707C29.8317 24.9707 30.4237 26.0985 30.4237 27.7521V34.3314H34.5115V27.2791C34.5115 23.5013 32.4949 21.7433 29.8053 21.7433C27.6001 21.7433 26.6316 22.9758 26.0935 23.8153H26.1208V22.0321H22.0327C22.0861 23.186 22.0324 34.3318 22.0324 34.3318L22.0325 34.3314Z" fill="white"/>
</svg>
