<svg width="50" height="50" viewBox="0 0 50 50" fill="none" xmlns="http://www.w3.org/2000/svg">
<rect width="50" height="50" rx="15" fill="#F0EEFF"/>
<path d="M25.0671 12.5598C18.0222 12.5598 12.5596 17.7223 12.5596 24.6921C12.5596 28.338 14.0542 31.4899 16.4869 33.6662C16.6902 33.8476 16.8152 34.104 16.8215 34.3791L16.8903 36.6055C16.8953 36.7693 16.9405 36.9294 17.0218 37.0716C17.1032 37.2139 17.2182 37.334 17.3569 37.4214C17.4955 37.5088 17.6535 37.5608 17.817 37.5728C17.9804 37.5848 18.1443 37.5565 18.2943 37.4904L20.777 36.396C20.9865 36.3022 21.2241 36.2865 21.4461 36.3459C22.5875 36.6586 23.8007 36.8275 25.0671 36.8275C32.1119 36.8275 37.5746 31.665 37.5746 24.6952C37.5746 17.7254 32.1119 12.5598 25.0671 12.5598Z" fill="url(#paint0_radial_1638_2659)"/>
<path d="M17.5563 28.2411L21.2304 22.4126C21.3686 22.1932 21.5508 22.0048 21.7655 21.8593C21.9802 21.7138 22.2227 21.6144 22.4778 21.5674C22.7328 21.5204 22.9948 21.5268 23.2473 21.5861C23.4997 21.6455 23.7371 21.7566 23.9445 21.9123L26.8681 24.1042C26.9987 24.202 27.1575 24.2545 27.3205 24.2539C27.4835 24.2534 27.642 24.1997 27.7718 24.1011L31.7179 21.1056C32.2432 20.7053 32.9312 21.337 32.5809 21.8967L28.9037 27.722C28.7655 27.9415 28.5833 28.1299 28.3686 28.2753C28.1539 28.4208 27.9114 28.5202 27.6564 28.5672C27.4013 28.6142 27.1393 28.6078 26.8868 28.5485C26.6344 28.4891 26.397 28.3781 26.1896 28.2223L23.266 26.0304C23.1355 25.9327 22.9767 25.8801 22.8136 25.8807C22.6506 25.8813 22.4922 25.9349 22.3623 26.0335L18.4162 29.0291C17.8909 29.4293 17.203 28.8008 17.5563 28.2411Z" fill="white"/>
<defs>
<radialGradient id="paint0_radial_1638_2659" cx="0" cy="0" r="1" gradientUnits="userSpaceOnUse" gradientTransform="translate(16.7496 37.5748) scale(27.5165 27.5165)">
<stop stop-color="#0099FF"/>
<stop offset="0.6" stop-color="#A033FF"/>
<stop offset="0.9" stop-color="#FF5280"/>
<stop offset="1" stop-color="#FF7061"/>
</radialGradient>
</defs>
</svg>
