<svg width="50" height="50" viewBox="0 0 50 50" fill="none" xmlns="http://www.w3.org/2000/svg">
<rect width="50" height="50" rx="15" fill="#FFECEC"/>
<path d="M23.7769 12.5837C19.7187 13.0475 15.6747 16.4086 15.5078 21.2098C15.4029 24.1412 16.216 26.3405 18.9414 26.958C20.124 24.8222 18.5599 24.3512 18.3166 22.8061C17.3176 16.4745 25.4507 12.1566 29.7069 16.577C32.6516 19.6378 30.7131 29.0547 25.9634 28.0759C21.414 27.1411 28.1904 19.6452 24.559 18.1733C21.6071 16.9773 20.0382 21.8322 21.4378 24.2438C20.6176 28.3908 18.8507 32.2986 19.5661 37.5001C21.8861 35.7769 22.6681 32.4768 23.3095 29.0352C24.4755 29.7601 25.0978 30.5144 26.5857 30.6315C32.0722 31.066 35.1361 25.0248 34.3874 19.4523C33.7222 14.512 28.9057 11.9979 23.7769 12.5837Z" fill="#FF0000"/>
</svg>
