<svg width="50" height="50" viewBox="0 0 50 50" fill="none" xmlns="http://www.w3.org/2000/svg">
<rect width="50" height="50" rx="15" fill="#FFECE5"/>
<path d="M25.1277 37.6793C32.9691 37.6793 39.3258 31.3226 39.3258 23.4813C39.3258 15.6399 32.9691 9.2832 25.1277 9.2832C17.2864 9.2832 10.9297 15.6399 10.9297 23.4813C10.9297 31.3226 17.2864 37.6793 25.1277 37.6793Z" fill="#FF4500"/>
<path d="M34.5981 23.4807C34.601 23.6752 34.5768 23.8694 34.5257 24.0571C34.4746 24.2449 34.3972 24.4249 34.2957 24.591C34.1945 24.7571 34.0703 24.9083 33.9269 25.04C33.7835 25.1717 33.6224 25.2824 33.4481 25.369C33.452 25.4209 33.4552 25.473 33.457 25.5252C33.4612 25.6293 33.4612 25.7335 33.457 25.8376C33.4552 25.8897 33.452 25.9419 33.4481 25.9937C33.4481 29.1741 29.7424 31.7582 25.1706 31.7582C20.5988 31.7582 16.8931 29.1741 16.8931 25.9937C16.8892 25.9419 16.886 25.8897 16.8843 25.8376C16.88 25.7335 16.88 25.6293 16.8843 25.5252C16.886 25.473 16.8892 25.4209 16.8931 25.369C16.6201 25.2435 16.3776 25.0602 16.1824 24.8317C15.9872 24.6032 15.844 24.3351 15.7626 24.0458C15.6814 23.7564 15.6641 23.4527 15.7119 23.156C15.7597 22.8592 15.8715 22.5764 16.0395 22.3271C16.2073 22.0779 16.4274 21.8681 16.6844 21.7124C16.9414 21.5568 17.2292 21.4588 17.5278 21.4255C17.8265 21.392 18.1288 21.4239 18.414 21.5189C18.6991 21.6139 18.9601 21.7698 19.179 21.9757C19.5854 21.7003 20.0111 21.4546 20.453 21.2406C20.8949 21.0269 21.3517 20.8452 21.8199 20.6975C22.2881 20.5499 22.7665 20.4366 23.251 20.3582C23.7355 20.2797 24.2254 20.2368 24.7163 20.2293L25.7669 15.3026C25.7786 15.2455 25.8017 15.1915 25.8347 15.1432C25.8674 15.0953 25.9096 15.0541 25.9583 15.0225C26.0072 14.991 26.0619 14.9693 26.1194 14.9587C26.1765 14.9484 26.2355 14.9494 26.2923 14.9619L29.7708 15.6576C30.1218 15.0545 30.8587 14.7961 31.5093 15.0474C32.16 15.2987 32.532 15.9855 32.3864 16.6677C32.2413 17.35 31.6215 17.8256 30.9251 17.7897C30.2283 17.7539 29.6608 17.2172 29.5862 16.5236L26.5478 15.8847L25.625 20.3145C26.1098 20.3248 26.5936 20.3702 27.0721 20.4501C28.0303 20.6098 28.9604 20.907 29.8336 21.3325C30.2698 21.5448 30.6901 21.7882 31.0912 22.0609C31.3796 21.7839 31.7421 21.5964 32.1348 21.521C32.5274 21.4453 32.9336 21.4849 33.3043 21.6349C33.6751 21.7849 33.9945 22.039 34.224 22.3665C34.4536 22.694 34.5836 23.081 34.5981 23.4807ZM20.508 25.4439C20.5797 25.6161 20.684 25.7726 20.8161 25.9043C20.9478 26.0363 21.1043 26.1407 21.2764 26.2124C21.4488 26.2837 21.6334 26.3203 21.8199 26.3203C22.3942 26.3203 22.9117 25.9742 23.1318 25.4439C23.3515 24.9133 23.2297 24.3028 22.8237 23.8967C22.4176 23.4906 21.8071 23.3689 21.2764 23.5886C20.7461 23.8087 20.4001 24.3262 20.4001 24.9005C20.4001 25.0868 20.4366 25.2714 20.508 25.4439ZM28.6399 28.8522C28.7127 28.7812 28.7542 28.6843 28.7556 28.5828C28.757 28.4809 28.7176 28.3829 28.6467 28.3102C28.5757 28.2374 28.4788 28.1959 28.3772 28.1944C28.2754 28.193 28.1774 28.2324 28.0954 28.2938C27.8819 28.447 27.6558 28.5817 27.4196 28.6967C27.1833 28.8117 26.9378 28.9066 26.6855 28.9803C26.4335 29.0538 26.1755 29.106 25.9146 29.1361C25.6534 29.1663 25.3903 29.1741 25.128 29.1599C24.8661 29.1716 24.6034 29.161 24.3432 29.1283C24.083 29.096 23.826 29.0414 23.5751 28.965C23.3238 28.8891 23.08 28.7918 22.8453 28.6747C22.6107 28.5576 22.3864 28.4205 22.1748 28.2654C22.1014 28.2051 22.008 28.1742 21.9129 28.1788C21.8177 28.1834 21.7279 28.2235 21.6605 28.2906C21.5934 28.3581 21.5533 28.4479 21.5487 28.543C21.5441 28.6381 21.575 28.7315 21.6353 28.805C21.8848 28.9931 22.15 29.1592 22.4279 29.3019C22.7058 29.4446 22.9958 29.5628 23.294 29.6558C23.5921 29.7488 23.8978 29.8159 24.2076 29.8567C24.5175 29.8971 24.8302 29.911 25.1422 29.8982C25.4542 29.911 25.7669 29.8971 26.0768 29.8567C26.6974 29.775 27.2994 29.5874 27.8565 29.3019C28.1345 29.1592 28.3996 28.9931 28.6491 28.805L28.6399 28.8522ZM28.3794 26.4339C28.5718 26.436 28.7627 26.3987 28.9406 26.3249C29.1184 26.2507 29.2792 26.1414 29.4134 26.0033C29.5475 25.8653 29.6519 25.7013 29.7207 25.5213C29.7896 25.3416 29.8212 25.1496 29.8134 24.9573C29.8134 24.383 29.4673 23.8655 28.937 23.6454C28.4064 23.4257 27.7958 23.5474 27.3898 23.9535C26.9837 24.3595 26.862 24.9701 27.0817 25.5007C27.3017 26.031 27.8193 26.3771 28.3936 26.3771L28.3794 26.4339Z" fill="white"/>
</svg>
