<svg width="50" height="50" viewBox="0 0 50 50" fill="none" xmlns="http://www.w3.org/2000/svg">
<rect y="-0.00012207" width="50" height="50" rx="15" fill="#EAFAFF"/>
<path d="M27.6269 19.3206C27.6269 21.4178 26.7442 23.4291 25.1728 24.9121C23.6015 26.3951 21.4703 27.2282 19.248 27.2282C17.0258 27.2282 14.8946 26.3951 13.3233 24.9121C11.7519 23.4291 10.8691 21.4178 10.8691 19.3206C10.8691 17.2233 11.7519 15.212 13.3233 13.729C14.8946 12.2461 17.0258 11.413 19.248 11.413C21.4703 11.413 23.6015 12.2461 25.1728 13.729C26.7442 15.212 27.6269 17.2233 27.6269 19.3206Z" fill="url(#paint0_linear_1638_2657)"/>
<path d="M39.3036 30.6762C39.3036 31.715 39.0868 32.7436 38.6656 33.7033C38.2443 34.6631 37.6269 35.5351 36.8486 36.2696C36.0703 37.0042 35.1463 37.5869 34.1294 37.9844C33.1124 38.3819 32.0225 38.5865 30.9218 38.5865C28.6988 38.5865 26.5669 37.7531 24.995 36.2696C23.4231 34.7862 22.54 32.7741 22.54 30.6762C22.54 28.5782 23.4231 26.5662 24.995 25.0827C26.5669 23.5993 28.6988 22.7659 30.9218 22.7659C32.0225 22.7659 33.1124 22.9705 34.1294 23.368C35.1463 23.7655 36.0703 24.3482 36.8486 25.0827C37.6269 25.8173 38.2443 26.6893 38.6656 27.649C39.0868 28.6088 39.3036 29.6374 39.3036 30.6762Z" fill="url(#paint1_linear_1638_2657)"/>
<path opacity="0.05" fill-rule="evenodd" clip-rule="evenodd" d="M10.8994 19.9971C11.0296 21.4911 11.6041 22.9197 12.5566 24.1173C13.5091 25.3148 14.8004 26.2323 16.2809 26.7634C17.7615 27.2945 19.3707 27.4175 20.9221 27.1181C22.4734 26.8188 23.9034 26.1093 25.0464 25.0719C26.1894 24.0345 26.9985 22.7117 27.38 21.2567C27.7616 19.8017 27.6999 18.2741 27.2022 16.851C26.7044 15.4278 25.791 14.1674 24.5677 13.2156C23.3444 12.2639 21.8614 11.6599 20.2904 11.4735C18.1573 12.1492 16.2088 13.2639 14.5851 14.7377C12.9613 16.2115 11.7026 18.0077 10.8994 19.9971Z" fill="black"/>
<path opacity="0.05" fill-rule="evenodd" clip-rule="evenodd" d="M39.2821 30.1086C39.1726 28.5964 38.608 27.1454 37.6551 25.9273C36.7022 24.7093 35.4008 23.7752 33.9048 23.2355C32.4088 22.6958 30.7809 22.5731 29.2136 22.8818C27.6463 23.1906 26.2052 23.918 25.0608 24.9779C23.9163 26.0378 23.1164 27.386 22.7556 28.8628C22.3949 30.3396 22.4883 31.8834 23.025 33.3116C23.5617 34.7397 24.5191 35.9924 25.7841 36.9215C27.049 37.8506 28.5684 38.4172 30.1627 38.5543C32.2375 37.8548 34.1273 36.7373 35.7018 35.279C37.2762 33.8208 38.4977 32.0564 39.2821 30.1077V30.1086Z" fill="black"/>
<path opacity="0.1" fill-rule="evenodd" clip-rule="evenodd" d="M11.292 21.8052C11.7321 23.08 12.5065 24.2283 13.5427 25.1427C14.5789 26.0571 15.8431 26.7077 17.217 27.0337C18.591 27.3596 20.0298 27.3503 21.3989 27.0066C22.768 26.6629 24.0227 25.996 25.0456 25.0683C26.0685 24.1406 26.8262 22.9824 27.2479 21.702C27.6695 20.4216 27.7414 19.0609 27.4566 17.747C27.1719 16.4332 26.5399 15.2093 25.6198 14.1896C24.6997 13.1699 23.5215 12.3879 22.1954 11.9166C19.5821 12.4321 17.1743 13.6325 15.2466 15.3809C13.3188 17.1292 11.9485 19.3552 11.292 21.8052Z" fill="black"/>
<path opacity="0.1" fill-rule="evenodd" clip-rule="evenodd" d="M38.9012 28.2497C38.4676 26.9598 37.6926 25.7965 36.6499 24.8703C35.6073 23.9442 34.3317 23.2861 32.9446 22.9586C31.5575 22.6312 30.1049 22.6453 28.7252 22.9996C27.3454 23.3539 26.0844 24.0366 25.062 24.9828C24.0396 25.929 23.29 27.1071 22.8843 28.4052C22.4787 29.7032 22.4306 31.0779 22.7446 32.3985C23.0587 33.7191 23.7243 34.9417 24.6783 35.9498C25.6323 36.958 26.8429 37.7183 28.1949 38.1582C30.7747 37.61 33.1425 36.3928 35.0333 34.6429C36.9242 32.893 38.2634 30.6793 38.9012 28.2497Z" fill="black"/>
<path opacity="0.1" fill-rule="evenodd" clip-rule="evenodd" d="M11.6006 22.5552C12.1458 23.7184 12.9786 24.7402 14.0288 25.5343C15.0789 26.3284 16.3156 26.8715 17.6341 27.1177C18.9527 27.3639 20.3145 27.3059 21.6044 26.9487C22.8943 26.5915 24.0744 25.9455 25.0451 25.0653C26.0158 24.1851 26.7484 23.0967 27.1811 21.8919C27.6139 20.6871 27.734 19.4013 27.5313 18.1433C27.3286 16.8853 26.8091 15.692 26.0166 14.6641C25.2242 13.6363 24.1821 12.8042 22.9784 12.2382C20.1947 12.6484 17.6111 13.8577 15.5764 15.7027C13.5417 17.5477 12.1539 19.9396 11.6006 22.5552Z" fill="black"/>
<path opacity="0.1" fill-rule="evenodd" clip-rule="evenodd" d="M38.5918 27.4847C38.0494 26.308 37.2134 25.2736 36.1557 24.4704C35.0981 23.6671 33.8502 23.119 32.5195 22.8731C31.1887 22.6271 29.8148 22.6908 28.5157 23.0586C27.2167 23.4263 26.0314 24.0872 25.0615 24.9844C24.0917 25.8816 23.3664 26.9884 22.948 28.2095C22.5295 29.4307 22.4304 30.7298 22.6591 31.9953C22.8878 33.2607 23.4376 34.4547 24.2611 35.4746C25.0846 36.4945 26.1573 37.3099 27.3871 37.8506C30.1463 37.4067 32.6971 36.1766 34.699 34.3245C36.701 32.4725 38.0589 30.0864 38.5918 27.4847Z" fill="black"/>
<path d="M38.3593 25.0589C38.3593 26.7036 38.0161 28.3322 37.3491 29.8518C36.6822 31.3713 35.7047 32.752 34.4723 33.915C33.24 35.078 31.777 36.0006 30.1669 36.63C28.5568 37.2594 26.8311 37.5833 25.0884 37.5833C23.3456 37.5833 21.6199 37.2594 20.0098 36.63C18.3997 36.0006 16.9367 35.078 15.7044 33.915C14.472 32.752 13.4945 31.3713 12.8276 29.8518C12.1606 28.3322 11.8174 26.7036 11.8174 25.0589C11.8174 23.4141 12.1606 21.7855 12.8276 20.266C13.4945 18.7464 14.472 17.3658 15.7044 16.2028C16.9367 15.0397 18.3997 14.1172 20.0098 13.4878C21.6199 12.8584 23.3456 12.5344 25.0884 12.5344C26.8311 12.5344 28.5568 12.8584 30.1669 13.4878C31.777 14.1172 33.24 15.0397 34.4723 16.2028C35.7047 17.3658 36.6822 18.7464 37.3491 20.266C38.0161 21.7855 38.3593 23.4141 38.3593 25.0589Z" fill="url(#paint2_linear_1638_2657)"/>
<path fill-rule="evenodd" clip-rule="evenodd" d="M21.3566 24.6236C20.8203 24.2894 20.3728 23.8424 20.0489 23.3175C19.7362 22.7629 19.5819 22.1406 19.6012 21.5122C19.5775 20.7147 19.865 19.9369 20.4086 19.3274C20.9736 18.7154 21.6997 18.2559 22.5131 17.9959C23.3978 17.7 24.3299 17.5513 25.2681 17.5566C25.882 17.5511 26.4952 17.5957 27.101 17.6898C27.5346 17.7532 27.9605 17.8572 28.3723 18.0004C28.7505 18.1217 29.0919 18.3281 29.3672 18.6019C29.57 18.8272 29.6792 19.1148 29.6743 19.4108C29.6815 19.5646 29.6567 19.7182 29.6012 19.8629C29.5457 20.0076 29.4607 20.1405 29.3509 20.2541C29.2471 20.3587 29.1211 20.4414 28.9811 20.4967C28.8411 20.5519 28.6904 20.5785 28.5388 20.5747C28.3302 20.5731 28.1244 20.5292 27.9352 20.4461C27.4688 20.2484 26.9883 20.082 26.4974 19.9479C26.0455 19.8351 25.5796 19.7802 25.1122 19.7849C24.5031 19.7636 23.9005 19.9096 23.3769 20.2052C23.156 20.3323 22.9752 20.5132 22.8533 20.7291C22.7315 20.945 22.6732 21.188 22.6844 21.4325C22.6811 21.7536 22.8102 22.0632 23.044 22.2957C23.322 22.5689 23.6504 22.7914 24.0131 22.9524C24.4193 23.1433 25.0252 23.3963 25.8306 23.7115C25.9198 23.7382 26.0068 23.7712 26.0908 23.8102C26.8769 24.1046 27.6304 24.4714 28.3408 24.9053C28.9018 25.2517 29.3748 25.7114 29.7259 26.2513C30.0717 26.8189 30.2448 27.466 30.2262 28.1209C30.2552 28.9229 30.0126 29.7125 29.5336 30.3745C29.046 31.0013 28.3713 31.4755 27.5965 31.7359C26.6627 32.0519 25.676 32.2041 24.6846 32.1852C23.3223 32.2304 21.9664 31.9875 20.7157 31.4742C20.3959 31.3393 20.1155 31.1329 19.8987 30.8727C19.7187 30.6343 19.6254 30.3469 19.6328 30.0539C19.6239 29.8993 19.6504 29.7448 19.7107 29.6009C19.771 29.457 19.8635 29.3273 19.9819 29.2206C20.2302 29.0147 20.5524 28.9071 20.8821 28.9198C21.2494 28.9246 21.6102 29.0125 21.9344 29.1762C22.3374 29.367 22.6553 29.5101 22.8881 29.6055C23.154 29.7109 23.4293 29.7934 23.7108 29.8519C24.0579 29.924 24.4125 29.9586 24.7678 29.9552C25.3962 29.9976 26.0216 29.8398 26.5443 29.5068C26.7399 29.3618 26.8963 29.1748 27.0004 28.9612C27.1046 28.7476 27.1535 28.5136 27.1431 28.2785C27.1437 27.9452 27.0095 27.6244 26.7681 27.3818C26.4491 27.0699 26.0756 26.8125 25.6642 26.6209C25.1776 26.3782 24.4933 26.0823 23.6113 25.7332C22.8225 25.4356 22.0671 25.0639 21.3566 24.6236Z" fill="white"/>
<defs>
<linearGradient id="paint0_linear_1638_2657" x1="17.9413" y1="11.509" x2="20.2905" y2="27.1718" gradientUnits="userSpaceOnUse">
<stop offset="0.012" stop-color="#00B7F0"/>
<stop offset="0.339" stop-color="#009DE5"/>
<stop offset="0.755" stop-color="#0082D9"/>
<stop offset="1" stop-color="#0078D4"/>
</linearGradient>
<linearGradient id="paint1_linear_1638_2657" x1="23.6669" y1="34.6418" x2="37.7692" y2="26.0438" gradientUnits="userSpaceOnUse">
<stop stop-color="#0078D4"/>
<stop offset="0.37" stop-color="#007AD5"/>
<stop offset="0.573" stop-color="#0082D9"/>
<stop offset="0.735" stop-color="#0090DF"/>
<stop offset="0.875" stop-color="#00A3E7"/>
<stop offset="1" stop-color="#00BCF2"/>
</linearGradient>
<linearGradient id="paint2_linear_1638_2657" x1="19.9093" y1="16.5661" x2="32.0956" y2="38.857" gradientUnits="userSpaceOnUse">
<stop stop-color="#00B7F0"/>
<stop offset="1" stop-color="#007CC1"/>
</linearGradient>
</defs>
</svg>
