<svg width="50" height="50" viewBox="0 0 50 50" fill="none" xmlns="http://www.w3.org/2000/svg">
<rect y="0.00012207" width="50" height="50" rx="15" fill="#E7FFEF"/>
<path fill-rule="evenodd" clip-rule="evenodd" d="M25.0075 12.5006C18.1284 12.5006 12.5 18.129 12.5 25.0081C12.5 31.8872 18.1284 37.5156 25.0075 37.5156C31.8866 37.5156 37.515 31.8872 37.515 25.0081C37.515 18.129 31.9492 12.5006 25.0075 12.5006ZM30.7609 30.5739C30.5108 30.9492 30.073 31.0742 29.6978 30.8241C26.7585 29.0105 23.0688 28.6353 18.6912 29.6359C18.2534 29.761 17.8782 29.4483 17.7531 29.073C17.6281 28.6353 17.9408 28.2601 18.316 28.135C23.0688 27.0718 27.1963 27.5096 30.4483 29.5108C30.886 29.6984 30.9486 30.1987 30.7609 30.5739ZM32.2618 27.1344C31.9492 27.5721 31.3863 27.7598 30.9486 27.4471C27.5715 25.3833 22.4435 24.758 18.5036 26.0087C18.0033 26.1338 17.4405 25.8836 17.3154 25.3833C17.1903 24.883 17.4405 24.3202 17.9408 24.1951C22.506 22.8193 28.1344 23.5072 32.0117 25.8836C32.3869 26.0712 32.5745 26.6966 32.2618 27.1344ZM32.3869 23.6323C28.3845 21.2559 21.693 21.0057 17.8782 22.1939C17.2528 22.3815 16.6275 22.0063 16.4399 21.4435C16.2522 20.8181 16.6275 20.1927 17.1903 20.0051C21.6305 18.6918 28.9474 18.942 33.5751 21.6936C34.138 22.0063 34.3256 22.7568 34.0129 23.3196C33.7002 23.7574 32.9498 23.945 32.3869 23.6323Z" fill="#10BC4C"/>
</svg>
