<svg width="50" height="50" viewBox="0 0 50 50" fill="none" xmlns="http://www.w3.org/2000/svg">
<rect y="-0.00012207" width="50" height="50" rx="15" fill="#F7F7F7"/>
<path fill-rule="evenodd" clip-rule="evenodd" d="M30.3994 21.5407C32.0741 22.7312 34.0795 23.3672 36.1341 23.3595V19.2876C35.7302 19.2887 35.3274 19.2454 34.9329 19.1586V22.4026C32.8736 22.4063 30.8653 21.7629 29.1914 20.5635V28.9381C29.1864 30.3123 28.8095 31.6596 28.1008 32.837C27.3921 34.0143 26.378 34.978 25.166 35.6257C23.954 36.2735 22.5894 36.5812 21.2167 36.5161C19.844 36.4511 18.5145 36.0159 17.3691 35.2565C18.4286 36.3284 19.7822 37.0618 21.2588 37.3639C22.7353 37.6659 24.2682 37.5231 25.6635 36.9533C27.0587 36.3836 28.2536 35.4126 29.0966 34.1634C29.9397 32.9142 30.3931 31.4429 30.3994 29.9358V21.5407ZM31.8857 17.3873C31.0341 16.4643 30.5116 15.2856 30.3994 14.0347V13.5054H29.2593C29.4002 14.3005 29.7069 15.057 30.1594 15.7258C30.6119 16.3946 31.2001 16.9607 31.8857 17.3873ZM20.0091 32.0328C19.614 31.5161 19.3718 30.8988 19.3102 30.2511C19.2486 29.6035 19.37 28.9516 19.6606 28.3696C19.9513 27.7876 20.3995 27.2989 20.9542 26.9591C21.5089 26.6193 22.1479 26.442 22.7984 26.4474C23.1576 26.4473 23.5146 26.5023 23.8571 26.6103V22.4026C23.4568 22.3496 23.0529 22.3269 22.6491 22.3348V25.6059C21.8151 25.3423 20.9125 25.4022 20.1207 25.7738C19.3289 26.1454 18.7059 26.8015 18.3758 27.6114C18.0456 28.4214 18.0325 29.326 18.3389 30.1452C18.6453 30.9644 19.2488 31.6383 20.0295 32.0328H20.0091Z" fill="#EE1D52"/>
<path fill-rule="evenodd" clip-rule="evenodd" d="M29.191 20.5363C30.8649 21.7358 32.8732 22.3791 34.9325 22.3755V19.1315C33.7592 18.8834 32.6934 18.2734 31.8853 17.3873C31.1997 16.9607 30.6115 16.3946 30.159 15.7258C29.7065 15.057 29.3998 14.3005 29.2589 13.5054H26.2592V29.9358C26.2564 30.663 26.0259 31.3712 25.6001 31.9608C25.1743 32.5503 24.5746 32.9918 23.8851 33.2231C23.1956 33.4545 22.451 33.464 21.7557 33.2506C21.0605 33.0371 20.4496 32.6113 20.0087 32.0328C19.3101 31.6803 18.7505 31.1027 18.4204 30.3932C18.0903 29.6836 18.0089 28.8836 18.1893 28.1221C18.3696 27.3606 18.8013 26.6821 19.4146 26.196C20.0279 25.71 20.7871 25.4447 21.5696 25.443C21.9287 25.4442 22.2856 25.4991 22.6284 25.6059V22.3348C21.1472 22.3703 19.7087 22.8376 18.4894 23.6791C17.2701 24.5207 16.323 25.7 15.7645 27.0722C15.2059 28.4444 15.0602 29.9499 15.3452 31.4038C15.6302 32.8576 16.3335 34.1967 17.3687 35.2565C18.5143 36.0213 19.8459 36.4611 21.2217 36.5289C22.5974 36.5968 23.9658 36.2902 25.1811 35.6418C26.3964 34.9934 27.4131 34.0275 28.1228 32.847C28.8325 31.6665 29.2087 30.3156 29.2114 28.9381L29.191 20.5363Z" fill="black"/>
<path fill-rule="evenodd" clip-rule="evenodd" d="M34.9331 19.1311V18.2557C33.8556 18.2602 32.799 17.959 31.8859 17.387C32.692 18.2756 33.7587 18.8861 34.9331 19.1311ZM29.2595 13.505C29.2595 13.3489 29.212 13.1861 29.1916 13.03V12.5006H25.0518V28.9378C25.0482 29.8582 24.6796 30.7395 24.0269 31.3884C23.3741 32.0373 22.4906 32.4008 21.5702 32.399C21.0283 32.4017 20.4934 32.2761 20.0093 32.0325C20.4502 32.6109 21.0611 33.0368 21.7563 33.2502C22.4516 33.4637 23.1962 33.4541 23.8857 33.2228C24.5752 32.9914 25.1749 32.55 25.6007 31.9604C26.0265 31.3708 26.257 30.6627 26.2598 29.9354V13.505H29.2595ZM22.629 22.3276V21.3979C20.9254 21.1664 19.1938 21.5188 17.7162 22.3976C16.2385 23.2763 15.1021 24.6296 14.4921 26.2369C13.8821 27.8442 13.8344 29.6107 14.3569 31.2486C14.8794 32.8864 15.9412 34.299 17.3693 35.2561C16.3419 34.1939 15.6461 32.8554 15.3669 31.4041C15.0878 29.9529 15.2373 28.4518 15.7973 27.0842C16.3574 25.7165 17.3036 24.5416 18.5204 23.703C19.7372 22.8643 21.1719 22.3982 22.6493 22.3616L22.629 22.3276Z" fill="#69C9D0"/>
</svg>
