<svg width="50" height="50" viewBox="0 0 50 50" fill="none" xmlns="http://www.w3.org/2000/svg">
<rect y="0.000244141" width="50" height="50" rx="15" fill="#EFE6F8"/>
<path d="M31.8093 26.5795L28.2048 29.9207H24.6004L21.4466 32.8442V29.9207H17.3916V17.3914H31.8093V26.5795Z" fill="#9146FF"/>
<path d="M19.2928 14.1304L18.2059 15.2173L16.3037 27.4456L22.0102 30.4347L22.8254 31.5217L28.2602 29.6195L34.2385 24.9999L34.5102 20.6521L34.2385 14.4021L33.4233 14.1304H19.2928Z" fill="white"/>
<path d="M18.6354 13.0435L14.1299 17.2199V32.2551H19.5365V36.4315L24.042 32.2551H27.6464L35.7564 24.7375V13.0435H18.6354ZM33.9542 23.9022L30.3498 27.2434H26.7453L23.5915 30.1669V27.2434H19.5365V14.714H33.9542V23.9022Z" fill="black"/>
<path d="M31.2514 17.6375H29.4492V22.6492H31.2514V17.6375Z" fill="black"/>
<path d="M26.2963 17.6375H24.4941V22.6492H26.2963V17.6375Z" fill="black"/>
</svg>
