<svg width="50" height="50" viewBox="0 0 50 50" fill="none" xmlns="http://www.w3.org/2000/svg">
<rect width="50" height="50" rx="15" fill="#EEFBFF"/>
<path d="M37.4095 17.0272C36.5839 17.3825 35.716 17.6299 34.8271 17.7633C35.2427 17.6921 35.8541 16.9441 36.0975 16.6413C36.4673 16.1846 36.7491 15.6633 36.9286 15.1038C36.9286 15.0622 36.9702 15.0029 36.9286 14.9732C36.9077 14.9618 36.8842 14.9558 36.8603 14.9558C36.8365 14.9558 36.813 14.9618 36.7921 14.9732C35.8269 15.4958 34.7997 15.8947 33.7348 16.1605C33.6977 16.1718 33.6582 16.1728 33.6206 16.1634C33.5829 16.154 33.5485 16.1345 33.5211 16.107C33.4382 16.0083 33.349 15.9151 33.254 15.828C32.8196 15.4389 32.3268 15.1204 31.7936 14.8841C31.0739 14.5889 30.2964 14.461 29.52 14.5101C28.7666 14.5577 28.0311 14.7598 27.3591 15.1038C26.6974 15.4665 26.1159 15.9592 25.6495 16.5523C25.1588 17.1627 24.8046 17.8712 24.6106 18.63C24.4506 19.3518 24.4325 20.0978 24.5572 20.8265C24.5572 20.9511 24.5572 20.969 24.4503 20.9511C20.2176 20.3278 16.7449 18.8259 13.9073 15.6024C13.7826 15.46 13.7173 15.46 13.6164 15.6024C12.3816 17.4783 12.9812 20.4465 14.5246 21.9128C14.7324 22.1087 14.9461 22.2987 15.1717 22.4768C14.464 22.4266 13.7737 22.2348 13.1415 21.9128C13.0227 21.8357 12.9574 21.8772 12.9515 22.0197C12.9347 22.2172 12.9347 22.4158 12.9515 22.6133C13.0754 23.5599 13.4484 24.4567 14.0325 25.2118C14.6166 25.967 15.3908 26.5535 16.2759 26.9113C16.4916 27.0037 16.7165 27.0733 16.9467 27.1191C16.2916 27.248 15.6197 27.2681 14.958 27.1784C14.8155 27.1487 14.7621 27.2259 14.8155 27.3625C15.6882 29.737 17.5819 30.4613 18.971 30.8649C19.161 30.8946 19.3509 30.8946 19.5646 30.9421C19.5646 30.9421 19.5646 30.9421 19.529 30.9777C19.1194 31.7257 17.4632 32.2303 16.7033 32.4915C15.3164 32.9897 13.8376 33.1801 12.3697 33.0495C12.1382 33.0139 12.0848 33.0198 12.0254 33.0495C11.9661 33.0792 12.0254 33.1445 12.0907 33.2039C12.3875 33.3998 12.6844 33.5719 12.9931 33.7381C13.912 34.2394 14.8836 34.6376 15.89 34.9254C21.1022 36.362 26.9673 35.3054 30.8794 31.417C33.9545 28.3657 35.0349 24.1568 35.0349 19.942C35.0349 19.7817 35.2308 19.6867 35.3436 19.6036C36.1216 18.9974 36.8074 18.2815 37.3798 17.4783C37.4789 17.3586 37.5297 17.2062 37.5222 17.0509C37.5222 16.9619 37.5223 16.9797 37.4095 17.0272Z" fill="#33CCFF"/>
</svg>
