<svg width="50" height="50" viewBox="0 0 50 50" fill="none" xmlns="http://www.w3.org/2000/svg">
<rect y="-0.00012207" width="50" height="50" rx="15" fill="#ECFFF5"/>
<path d="M12.5 36.5001L14.2937 29.8367C12.8471 27.2409 12.3875 24.2119 12.9993 21.3054C13.611 18.399 15.253 15.81 17.624 14.0136C19.9949 12.2173 22.9359 11.334 25.907 11.5259C28.8782 11.7178 31.6803 12.972 33.7993 15.0584C35.9182 17.1447 37.2117 19.9233 37.4426 22.8842C37.6734 25.8451 36.826 28.7897 35.0559 31.1777C33.2858 33.5657 30.7117 35.2369 27.806 35.8846C24.9003 36.5323 21.8578 36.1131 19.2369 34.7039L12.5 36.5001ZM19.5618 32.2104L19.9784 32.457C21.8768 33.5793 24.094 34.0437 26.2846 33.7779C28.4753 33.5121 30.5162 32.5309 32.0894 30.9873C33.6626 29.4437 34.6796 27.4244 34.9821 25.244C35.2846 23.0636 34.8555 20.8447 33.7616 18.933C32.6678 17.0212 30.9707 15.5241 28.9347 14.675C26.8988 13.8258 24.6384 13.6722 22.5059 14.2382C20.3733 14.8042 18.4883 16.0579 17.1447 17.804C15.8011 19.5501 15.0743 21.6905 15.0776 23.8917C15.0758 25.7168 15.5818 27.5066 16.5393 29.0618L16.8006 29.4915L15.7979 33.2107L19.5618 32.2104Z" fill="#00D95F"/>
<path fill-rule="evenodd" clip-rule="evenodd" d="M29.6745 25.6027C29.4302 25.4062 29.1442 25.2679 28.8383 25.1983C28.5324 25.1287 28.2145 25.1297 27.909 25.2012C27.45 25.3914 27.1534 26.1099 26.8568 26.4691C26.7943 26.5552 26.7024 26.6156 26.5984 26.639C26.4944 26.6623 26.3854 26.647 26.2919 26.5959C24.6114 25.9394 23.2028 24.7354 22.2949 23.1796C22.2175 23.0825 22.1808 22.9593 22.1927 22.8358C22.2045 22.7123 22.264 22.5982 22.3585 22.5175C22.6893 22.1909 22.9322 21.7863 23.0647 21.3412C23.0941 20.8503 22.9813 20.3612 22.7398 19.9324C22.5531 19.3313 22.1978 18.796 21.7159 18.3898C21.4673 18.2783 21.1917 18.2409 20.9223 18.2822C20.6529 18.3234 20.4012 18.4415 20.1976 18.6223C19.8441 18.9265 19.5635 19.3059 19.3766 19.7325C19.1896 20.1592 19.1009 20.6223 19.1171 21.0876C19.1182 21.349 19.1514 21.6092 19.216 21.8624C19.38 22.471 19.6321 23.0523 19.9645 23.5882C20.2043 23.9986 20.466 24.396 20.7484 24.7786C21.6661 26.0352 22.8197 27.1021 24.1451 27.9201C24.8102 28.3358 25.5211 28.6738 26.2636 28.9274C27.035 29.2762 27.8867 29.41 28.7282 29.3148C29.2077 29.2424 29.662 29.0536 30.0511 28.7649C30.4402 28.4763 30.7522 28.0967 30.9597 27.6595C31.0816 27.3954 31.1186 27.1001 31.0657 26.8142C30.9385 26.2296 30.1547 25.8845 29.6745 25.6027Z" fill="#00D95F"/>
</svg>
